<svg xmlns="http://www.w3.org/2000/svg" width="600" height="600" fill="none" xmlns:v="https://vecta.io/nano"><style><![CDATA[.B{stroke:#fff}.C{fill-opacity:.1}]]></style><rect x=".002" y="-.001" width="600" height="600" rx="101" fill="url(#A)"/><g fill="#fff" class="B"><use href="#B"/><path transform="rotate(300 165.603 228.723)" d="M165.603 228.723h10.148v304.404h-10.148z"/><use href="#C" transform="rotate(330.968 311.728 141.533)"/><use href="#C" x="-159.88" y="96.715" transform="rotate(330.968 151.848 238.248)"/><use href="#C" x="-30.846" y="-4.253" transform="rotate(30 280.882 137.28)"/><path transform="rotate(30 439.53 228.181)" d="M439.53 228.181h10.148v263.208H439.53z"/><path transform="rotate(60 428.789 219.985)" d="M428.789 219.985h10.148v300.598h-10.148z"/><use href="#B" x="317.296"/><path d="M294.88 155.964h10.148v108.767H294.88zm0 180.944h10.148v108.767H294.88z"/><use href="#D" transform="rotate(270 167.961 216.708)"/><path transform="rotate(300 164.181 412.276)" d="M164.181 412.276h10.148v123.49h-10.148z"/><path transform="rotate(300 327.65 140.924)" d="M327.65 140.924h10.148v123.49H327.65z"/><path transform="rotate(60 432.767 400.391)" d="M432.767 400.391h10.148v121.827h-10.148z"/><path transform="rotate(60 273.649 128.705)" d="M273.649 128.705h10.148v121.827h-10.148z"/><use href="#D" y="180.086" transform="rotate(270 167.961 396.794)"/></g><g fill="#d9d9d9" stroke-width="17" class="B C"><rect x="271.149" y="88.499" width="58.465" height="58.465" rx="29.233"/><rect x="112.502" y="362.059" width="58.465" height="58.465" rx="29.233"/><rect x="112.502" y="179.4" width="58.465" height="58.465" rx="29.233"/><rect x="429.798" y="362.059" width="58.465" height="58.465" rx="29.233"/><rect x="429.798" y="179.4" width="58.465" height="58.465" rx="29.233"/><rect x="271.149" y="453.818" width="58.465" height="58.465" rx="29.233"/></g><rect x="270.149" y="270.158" width="60.465" height="60.465" rx="30.233" fill="#67a9ff" stroke-width="15" class="B"/><defs><linearGradient id="A" x1=".002" y1="-.001" x2="600.002" y2="599.999" gradientUnits="userSpaceOnUse"><stop stop-color="#004cb6"/><stop offset=".176" stop-color="#1079ff"/><stop offset=".423" stop-color="#4491ff"/><stop offset=".712" stop-color="#1f77ff"/><stop offset=".957" stop-color="#003ea9"/></linearGradient><path id="B" d="M136.231 246.007h10.148v108.767h-10.148z"/><path id="C" d="M311.728 141.533h10.148v263.208h-10.148z"/><path id="D" d="M167.961 216.708h10.148v252.837h-10.148z"/></defs></svg>