<svg width="600" height="600" viewBox="0 0 600 600" fill="none" xmlns="http://www.w3.org/2000/svg">
<rect x="0.00195312" y="-0.00134277" width="600" height="600" rx="101" fill="url(#paint0_linear_2001_27)"/>
<rect x="136.231" y="246.007" width="10.1482" height="108.767" fill="white" stroke="white"/>
<rect x="165.603" y="228.723" width="10.1482" height="304.404" transform="rotate(-60 165.603 228.723)" fill="white" stroke="white"/>
<rect x="311.728" y="141.533" width="10.1482" height="263.208" transform="rotate(-29.0317 311.728 141.533)" fill="white" stroke="white"/>
<rect x="151.848" y="238.248" width="10.1482" height="263.208" transform="rotate(-29.0317 151.848 238.248)" fill="white" stroke="white"/>
<rect x="280.882" y="137.28" width="10.1482" height="263.208" transform="rotate(30 280.882 137.28)" fill="white" stroke="white"/>
<rect x="439.53" y="228.181" width="10.1482" height="263.208" transform="rotate(30 439.53 228.181)" fill="white" stroke="white"/>
<rect x="428.789" y="219.985" width="10.1482" height="300.598" transform="rotate(60 428.789 219.985)" fill="white" stroke="white"/>
<rect x="453.527" y="246.007" width="10.1482" height="108.767" fill="white" stroke="white"/>
<rect x="294.88" y="155.964" width="10.1482" height="108.767" fill="white" stroke="white"/>
<rect x="294.88" y="336.908" width="10.1482" height="108.767" fill="white" stroke="white"/>
<rect x="167.961" y="216.708" width="10.1482" height="252.837" transform="rotate(-90 167.961 216.708)" fill="white" stroke="white"/>
<rect x="164.181" y="412.276" width="10.1482" height="123.49" transform="rotate(-60 164.181 412.276)" fill="white" stroke="white"/>
<rect x="327.65" y="140.924" width="10.1482" height="123.49" transform="rotate(-60 327.65 140.924)" fill="white" stroke="white"/>
<rect x="432.767" y="400.391" width="10.1482" height="121.827" transform="rotate(60 432.767 400.391)" fill="white" stroke="white"/>
<rect x="273.649" y="128.705" width="10.1482" height="121.827" transform="rotate(60 273.649 128.705)" fill="white" stroke="white"/>
<rect x="167.961" y="396.794" width="10.1482" height="252.837" transform="rotate(-90 167.961 396.794)" fill="white" stroke="white"/>
<rect x="271.149" y="88.4987" width="58.465" height="58.465" rx="29.2325" fill="#D9D9D9" fill-opacity="0.1" stroke="white" stroke-width="17"/>
<rect x="112.502" y="362.059" width="58.465" height="58.465" rx="29.2325" fill="#D9D9D9" fill-opacity="0.1" stroke="white" stroke-width="17"/>
<rect x="112.502" y="179.4" width="58.465" height="58.465" rx="29.2325" fill="#D9D9D9" fill-opacity="0.1" stroke="white" stroke-width="17"/>
<rect x="429.798" y="362.059" width="58.465" height="58.465" rx="29.2325" fill="#D9D9D9" fill-opacity="0.1" stroke="white" stroke-width="17"/>
<rect x="429.798" y="179.4" width="58.465" height="58.465" rx="29.2325" fill="#D9D9D9" fill-opacity="0.1" stroke="white" stroke-width="17"/>
<rect x="271.149" y="453.818" width="58.465" height="58.465" rx="29.2325" fill="#D9D9D9" fill-opacity="0.1" stroke="white" stroke-width="17"/>
<rect x="270.149" y="270.158" width="60.465" height="60.465" rx="30.2325" fill="#67A9FF" stroke="white" stroke-width="15"/>
<defs>
<linearGradient id="paint0_linear_2001_27" x1="0.00195312" y1="-0.00134277" x2="600.002" y2="599.999" gradientUnits="userSpaceOnUse">
<stop stop-color="#004CB6"/>
<stop offset="0.175654" stop-color="#1079FF"/>
<stop offset="0.423077" stop-color="#4491FF"/>
<stop offset="0.711538" stop-color="#1F77FF"/>
<stop offset="0.956731" stop-color="#003EA9"/>
</linearGradient>
</defs>
</svg>
