<svg width="600" height="600" viewBox="0 0 600 600" fill="none" xmlns="http://www.w3.org/2000/svg">
<rect x="100.5" y="252.5" width="12" height="127" fill="white" stroke="white"/>
<rect x="134.72" y="232.459" width="12" height="355.133" transform="rotate(-60 134.72 232.459)" fill="white" stroke="white"/>
<rect x="305.117" y="130.723" width="12" height="307.094" transform="rotate(-29.0317 305.117 130.723)" fill="white" stroke="white"/>
<rect x="118.68" y="243.503" width="12" height="307.094" transform="rotate(-29.0317 118.68 243.503)" fill="white" stroke="white"/>
<rect x="269.23" y="125.683" width="12" height="307.094" transform="rotate(30 269.23 125.683)" fill="white" stroke="white"/>
<rect x="454.23" y="231.683" width="12" height="307.094" transform="rotate(30 454.23 231.683)" fill="white" stroke="white"/>
<rect x="441.765" y="222.125" width="12" height="350.695" transform="rotate(60 441.765 222.125)" fill="white" stroke="white"/>
<rect x="470.5" y="252.5" width="12" height="127" fill="white" stroke="white"/>
<rect x="285.5" y="147.5" width="12" height="127" fill="white" stroke="white"/>
<rect x="285.5" y="358.5" width="12" height="127" fill="white" stroke="white"/>
<rect x="137.5" y="218.5" width="12" height="295" transform="rotate(-90 137.5 218.5)" fill="white" stroke="white"/>
<rect x="133.062" y="446.501" width="12" height="144.168" transform="rotate(-60 133.062 446.501)" fill="white" stroke="white"/>
<rect x="323.683" y="130.075" width="12" height="144.168" transform="rotate(-60 323.683 130.075)" fill="white" stroke="white"/>
<rect x="446.405" y="432.498" width="12" height="142.229" transform="rotate(60 446.405 432.498)" fill="white" stroke="white"/>
<rect x="260.857" y="115.683" width="12" height="142.229" transform="rotate(60 260.857 115.683)" fill="white" stroke="white"/>
<rect x="137.5" y="428.5" width="12" height="295" transform="rotate(-90 137.5 428.5)" fill="white" stroke="white"/>
<rect x="256.5" y="67.5" width="71" height="71" rx="35.5" fill="#D9D9D9" fill-opacity="0.1" stroke="white" stroke-width="17"/>
<rect x="71.5" y="386.5" width="71" height="71" rx="35.5" fill="#D9D9D9" fill-opacity="0.1" stroke="white" stroke-width="17"/>
<rect x="71.5" y="173.5" width="71" height="71" rx="35.5" fill="#D9D9D9" fill-opacity="0.1" stroke="white" stroke-width="17"/>
<rect x="441.5" y="386.5" width="71" height="71" rx="35.5" fill="#D9D9D9" fill-opacity="0.1" stroke="white" stroke-width="17"/>
<rect x="441.5" y="173.5" width="71" height="71" rx="35.5" fill="#D9D9D9" fill-opacity="0.1" stroke="white" stroke-width="17"/>
<rect x="256.5" y="493.5" width="71" height="71" rx="35.5" fill="#D9D9D9" fill-opacity="0.1" stroke="white" stroke-width="17"/>
<rect x="258" y="282" width="68" height="68" rx="34" fill="#0C0C0C" stroke="white" stroke-width="20"/>
</svg>
